<svg width="109" height="54" xmlns="http://www.w3.org/2000/svg" fill="none">
 <g id="Layer_1">
  <title>Layer 1</title>
  <text transform="matrix(2.28655 0 0 1.1738 -70.3697 59.9957)" stroke="#000" xml:space="preserve" text-anchor="start" font-family="Noto Sans JP" font-size="24" id="svg_1" y="-24.66269" x="31.91504" stroke-width="0" fill="url(#svg_5)">john</text>
  <path transform="rotate(8.41149 81.0556 40.0561)" stroke="#000" id="svg_3" d="m106.90411,30.13659l-9.19181,-1.65529c-2.31912,-0.41723 -5.37497,-0.21641 -6.83625,0.44819l-3.62301,1.6522l17.58431,3.16437l3.62587,-1.65144c1.45574,-0.66539 0.76097,-1.54174 -1.55911,-1.95804l0,0zm-50.94242,14.71938l17.58527,3.16434l28.66108,-13.07261l-17.59364,-3.16516l-28.65271,13.07343l0,0zm-2.68615,4.02041l-0.3884,2.97221l9.17771,-1.39086l8.5287,-1.29022l-16.96508,-3.05467l-0.35293,2.76354l0,0l0,0z" stroke-width="0" fill="#ea1010"/>
 </g>
 <defs>
  <linearGradient spreadMethod="pad" y2="0" x2="1" y1="0" x1="0" id="svg_5">
   <stop offset="0.23438" stop-color="#d9e01d"/>
   <stop offset="0.73047" stop-color="#261fe2"/>
   <stop offset="0.83594" stop-color="#261fe2"/>
  </linearGradient>
 </defs>
</svg>