<svg width="109" height="57" xmlns="http://www.w3.org/2000/svg" fill="none">
 <defs>
  <linearGradient y2="4.77472" x2="3.34839" y1="0.66614" x1="3.75888" id="paint0_linear_2205_14">
   <stop stop-color="#DF8908"/>
   <stop stop-color="#B415FF" offset="1"/>
  </linearGradient>
 </defs>
 <g>
  <title>Layer 1</title>
  <path id="svg_1" fill="url(#paint0_linear_2205_14)" d="m68,42.39c0,-1.0462 0.9096,-1.86 1.9493,-1.7441l31.3017,3.4901c3.976,0.4434 7.34,-2.91 6.91,-6.8877c-0.448,-4.1322 -4.727,-6.6861 -8.5766,-5.1177l-29.1673,11.8845c-1.1542,0.4703 -2.4171,-0.3788 -2.4171,-1.6251z"/>
  <path id="svg_2" fill="#000000" d="m-22.1,-34l12.735,-31.635l4.995,0l12.69,31.635l-6.525,0l-9.81,-25.965l2.25,0l-9.945,25.965l-6.39,0zm6.75,-5.895l0,-5.13l17.01,0l0,5.13l-17.01,0zm27.128,5.895l0,-32.535l5.895,0l0,32.535l-5.895,0zm21.5131,0.45c-2.28,0 -4.305,-0.48 -6.075,-1.44c-1.77,-0.99 -3.18,-2.34 -4.23,-4.05c-1.02,-1.71 -1.53,-3.66 -1.53,-5.85c0,-2.16 0.495,-4.08 1.485,-5.76c1.02,-1.71 2.4,-3.06 4.14,-4.05c1.74,-1.02 3.675,-1.53 5.805,-1.53c2.1,0 3.945,0.48 5.535,1.44c1.62,0.93 2.88,2.22 3.78,3.87c0.93,1.62 1.395,3.465 1.395,5.535c0,0.39 -0.03,0.795 -0.09,1.215c-0.03,0.39 -0.105,0.84 -0.225,1.35l-18.27,0.045l0,-4.41l15.525,-0.045l-2.385,1.845c-0.06,-1.29 -0.3,-2.37 -0.72,-3.24c-0.39,-0.87 -0.975,-1.53 -1.755,-1.98c-0.75,-0.48 -1.68,-0.72 -2.79,-0.72c-1.17,0 -2.19,0.27 -3.06,0.81c-0.87,0.51 -1.545,1.245 -2.025,2.205c-0.45,0.93 -0.675,2.04 -0.675,3.33c0,1.32 0.24,2.475 0.72,3.465c0.51,0.96 1.23,1.71 2.16,2.25c0.93,0.51 2.01,0.765 3.24,0.765c1.11,0 2.115,-0.18 3.015,-0.54c0.9,-0.39 1.68,-0.96 2.34,-1.71l3.465,3.465c-1.05,1.23 -2.34,2.16 -3.87,2.79c-1.5,0.63 -3.135,0.945 -4.905,0.945zm35.1007,-0.45l-9.09,-14.085l-0.9,0l-12.33,-17.55l7.245,0l9.045,13.275l0.9,0l12.285,18.36l-7.155,0zm-22.86,0l11.835,-16.92l4.5,3.015l-9.405,13.905l-6.93,0zm18.045,-15.03l-4.5,-3.015l9,-13.59l6.93,0l-11.43,16.605z"/>
  <text transform="matrix(2.12055 0 0 1.65342 -62.3067 0.479266)" stroke="null" xml:space="preserve" text-anchor="start" font-family="Noto Sans JP" font-size="24" stroke-width="0" id="svg_3" y="23.29998" x="31.49999" fill="#ffffff">john</text>
 </g>
</svg>